<svg width="276" height="118" viewBox="0 0 276 118" fill="none" xmlns="http://www.w3.org/2000/svg">
<path fill-rule="evenodd" clip-rule="evenodd" d="M78.3346 71.5771L78.4057 27.9383C74.777 27.796 64.3417 33.2627 61.6024 35.0296C51.1314 41.7651 44.3484 48.5718 38.0042 59.3274C35.6207 63.3711 32.0869 71.2332 31.2094 76.3916C27.4858 88.0602 29.1934 103.286 32.5849 114.445L78.2278 114.41L78.3346 71.5771Z" fill="#FFFFFF"/>
<path fill-rule="evenodd" clip-rule="evenodd" d="M36.2017 30.9978H38.099L38.0516 32.575L36.178 32.5394L36.2017 30.9978ZM40.3521 24.2029L41.5854 24.1911C42.3918 26.6339 42.7712 24.2859 42.9847 26.9659C40.5063 26.7288 43.376 27.3928 40.3521 25.3532L40.0201 24.5468C38.8461 25.033 39.0596 24.867 38.3955 25.8868C37.8737 26.0647 38.3125 25.7445 37.5891 26.3019C37.3282 26.5035 37.1504 26.7288 36.9013 26.9778C36.3084 27.5707 36.2373 27.6656 35.5139 28.2229C36.0238 29.8475 35.1937 29.812 34.4348 30.9504L33.3557 30.9741C31.7785 32.0888 27.889 37.2472 26.5253 39.3579C24.4382 42.5834 22.861 45.1804 20.9518 48.7379C13.2202 63.2051 10.3267 83.0561 13.3862 99.5155C14.1095 103.405 17.584 114.184 17.9872 115.512L21.1534 115.536C16.7184 103.785 9.12903 73.0357 32.2054 47.4098L39.0477 40.1406L49.1036 32.741C58.5429 26.1359 76.034 19.7205 87.8449 18.7718L87.9279 4.29272C69.251 5.51414 55.4716 12.0718 41.5973 22.8274C40.3996 23.7523 40.9688 22.9934 40.3521 24.2029Z" fill="#FFFFFF"/>
<path fill-rule="evenodd" clip-rule="evenodd" d="M0.792603 70.5574C1.32623 69.6087 2.06145 66.1105 2.44092 64.8416C4.05366 59.4223 6.05772 54.3944 8.44126 49.4376C12.2004 41.6229 18.8885 32.9663 19.434 31.8279L23.6911 27.0015C24.4026 26.1952 23.8453 26.9897 24.3196 26.1952C23.4184 25.6378 23.5133 26.3138 23.4184 25.1279C23.3117 23.6575 23.6081 24.203 24.6161 24.0962L24.5686 25.8987C25.7308 25.1279 27.1656 23.361 28.4108 22.2226C29.8101 20.9538 30.984 19.7442 32.5138 18.5228C39.6051 12.8545 42.0716 10.6844 50.8587 6.00036L61.6498 1.05542H0.792603V22.4716V70.5574Z" fill="#FFFFFF"/>
<path fill-rule="evenodd" clip-rule="evenodd" d="M40.3521 24.2029C39.6524 24.1081 40.0675 24.0962 40.0201 24.5468L40.3521 25.3532C43.376 27.3929 40.5063 26.7288 42.9847 26.966C42.7712 24.286 42.3917 26.6339 41.5854 24.1911L40.3521 24.2029Z" fill="#FFFFFF"/>
<path fill-rule="evenodd" clip-rule="evenodd" d="M36.178 32.5394L38.0516 32.575L38.099 30.9978H36.2017L36.178 32.5394Z" fill="#FFFFFF"/>
<path fill-rule="evenodd" clip-rule="evenodd" d="M33.3557 30.974L34.4348 30.9503C35.1938 29.8119 36.0238 29.8475 35.5139 28.2229C35.0277 29.2902 34.0079 29.6103 33.3557 30.974Z" fill="#FFFFFF"/>
<path fill-rule="evenodd" clip-rule="evenodd" d="M24.3196 26.1952C24.8058 26.3494 24.6872 26.4087 24.5686 25.8988L24.616 24.0963C23.6081 24.203 23.3116 23.6575 23.4183 25.128C23.5132 26.3138 23.4183 25.6379 24.3196 26.1952Z" fill="#FFFFFF"/>
<path d="M145.263 65.0551V61.7703C145.263 43.3661 136.168 36.3578 119.566 36.3578C92.8492 36.3578 91.7345 56.3984 91.7345 76.451C91.7345 100.002 93.6318 117.635 117.764 117.635C141.113 117.635 145.927 105.03 145.927 88.167V85.4278H127.748C127.642 97.5826 126.859 105.362 119.898 105.362C112.036 105.362 111.253 99.3376 111.253 76.1189C111.253 55.6395 111.929 48.6193 119.448 48.6193C125.732 48.6193 127.084 53.6592 127.084 65.0551H145.263ZM153.789 116.094H170.616V62.209H170.842L187.337 116.094H208.67V37.8875H191.155V88.7125H190.93L175.443 37.8875H153.789V116.094ZM220.339 116.094H237.166V62.209H237.391L253.886 116.094H275.207V37.8875H257.704V88.7125H257.479L241.992 37.8875H220.339V116.094Z" fill="#FFFFFF"/>
<path d="M112.688 8.39573C112.629 4.51804 110.554 2.58513 106.439 2.58513C105.419 2.58513 104.079 2.66813 102.443 2.84601C102.265 9.03608 102.182 14.657 102.182 19.7323C102.182 23.2899 102.229 26.5746 102.348 29.5748L102.312 29.6578C100.877 29.6934 99.4899 29.7527 98.1499 29.8357C98.2329 27.7605 98.3159 23.8828 98.4108 18.1907V15.5345C98.4938 10.1389 98.4701 5.08724 98.3159 0.391326C99.0511 0.391326 100.545 0.320176 102.787 0.177876C104.577 0.0592919 106.059 0 107.257 0C113.388 0 116.483 2.73929 116.542 8.21786C116.578 9.93732 116.186 11.5263 115.368 12.9849C113.495 16.329 109.7 18.0366 103.972 18.0959L103.012 15.6056C105.146 15.5108 106.795 15.2973 107.957 14.9416C111.17 13.9929 112.748 11.7991 112.688 8.39573ZM119.661 18.5584C119.59 14.8941 120.337 11.8821 121.902 9.54599C123.717 6.88972 126.397 5.54972 129.93 5.54972C133.085 5.54972 135.492 6.7237 137.14 9.0598C138.599 11.0876 139.37 13.7557 139.464 17.0523C139.547 20.7403 138.812 23.7523 137.247 26.0884C135.48 28.7803 132.812 30.1203 129.254 30.1203C126.076 30.1203 123.657 28.9582 121.973 26.6221C120.503 24.5824 119.732 21.9024 119.661 18.5584ZM129.859 7.69609C125.187 7.69609 122.922 11.2299 123.052 18.2975C123.1 20.8589 123.539 22.9697 124.357 24.6298C125.448 26.8236 127.144 27.9146 129.432 27.9146C131.934 27.9146 133.772 26.6458 134.935 24.0962C135.8 22.187 136.215 19.8272 136.168 17.0286C136.026 10.803 133.927 7.69609 129.859 7.69609ZM149.734 19.6493C151.252 21.8906 153.469 25.3058 156.386 29.9187L156.564 30.0136C157.335 29.9543 158.568 29.8831 160.276 29.812C159.742 29.1835 158.805 27.9858 157.477 26.2307C156.956 25.5074 155.438 23.2068 152.912 19.3292C154.572 18.9497 156.007 18.0366 157.193 16.5662C158.39 15.0839 158.972 13.5067 158.948 11.8228C158.877 7.89768 156.458 5.94105 151.69 5.94105C150.73 5.94105 149.568 5.97662 148.18 6.04777C146.342 6.14264 145.157 6.19007 144.647 6.19007C144.789 10.044 144.836 13.7083 144.789 17.1946L144.753 19.4003C144.73 20.6336 144.647 24.1081 144.504 29.812C145.856 29.6934 146.983 29.6222 147.872 29.5985C147.777 27.5944 147.73 24.9382 147.73 21.6415C147.73 17.9536 147.789 13.4474 147.908 8.1467C149.26 8.09927 150.22 8.07555 150.777 8.07555C154.145 8.07555 155.841 9.49856 155.865 12.3564C155.865 12.9849 155.734 13.6964 155.473 14.4909C155.224 15.2854 154.892 15.8784 154.489 16.2816C153.742 17.0049 151.904 17.5741 148.963 18.001L149.734 19.6493ZM175.739 6.39167C175.644 7.37591 175.597 8.13485 175.597 8.66847L175.526 8.73962H174.435C172.988 8.73962 171.399 8.75148 169.668 8.7752C169.502 13.898 169.431 18.6888 169.431 23.1476C169.431 25.3888 169.431 27.547 169.431 29.5985C168.601 29.5985 167.462 29.6578 165.992 29.7764C166.336 22.4835 166.466 15.3922 166.371 8.50246C164.225 8.57361 162.268 8.65661 160.489 8.73962C160.489 8.25343 160.525 7.51821 160.596 6.53397L160.632 6.46282C163.964 6.51025 169.004 6.48653 175.739 6.39167ZM174.091 29.812L177.945 18.2738C179.344 14.0047 180.542 10.1152 181.55 6.60512L181.692 6.46282C183.352 6.39167 184.811 6.30866 186.068 6.22565L186.175 6.32051C186.851 9.27325 187.847 13.1391 189.163 17.9299C190.017 21.1316 191.108 24.9856 192.412 29.4918L192.282 29.6341L189.021 29.812L188.914 29.7052C188.534 28.0451 187.953 25.5667 187.159 22.27C184.68 22.2937 182.024 22.3412 179.166 22.4123C178.324 25.3058 177.672 27.6775 177.21 29.5274L177.103 29.6697C176.071 29.6697 175.063 29.7171 174.091 29.812ZM183.578 8.72777L179.783 20.3845C181.858 20.3608 184.135 20.3134 186.602 20.2422L183.578 8.72777ZM207.354 29.5985L207.283 29.6697H195.566C195.899 20.6692 196.029 13.9573 195.958 9.51042C195.934 8.32458 195.863 7.25733 195.744 6.32051C196.586 6.28494 197.808 6.22565 199.397 6.1545C199.017 11.9651 198.828 18.9971 198.828 27.2505C201.282 27.1794 204.176 27.0608 207.484 26.8948C207.46 27.5114 207.413 28.4008 207.354 29.5985Z" fill="#FFFFFF"/>
</svg>
